<svg xmlns="http://www.w3.org/2000/svg" width="24" height="24" viewBox="0 0 24 24">
  <g id="グループ_3242" data-name="グループ 3242" transform="translate(-245 -15)">
    <rect id="長方形_1722" data-name="長方形 1722" width="24" height="24" transform="translate(245 15)" fill="#fff" opacity="0"/>
    <path id="man" d="M18.018,17.556l-.451-1.8a2.617,2.617,0,0,0-1.716-1.862l-3.3-1.1c-.806-.336-1.174-1.633-1.254-2.126a3.122,3.122,0,0,0,1.1-2.03.612.612,0,0,1,.091-.387.375.375,0,0,0,.258-.225,5.613,5.613,0,0,0,.4-1.641.361.361,0,0,0-.011-.091.966.966,0,0,0-.364-.547V3.755a2.2,2.2,0,0,0-.758-1.994c-.074-.583-.7-1.761-3-1.761A3.915,3.915,0,0,0,5.264,3.755V5.745a.966.966,0,0,0-.364.547.361.361,0,0,0-.011.091,5.613,5.613,0,0,0,.4,1.642.319.319,0,0,0,.225.216c.042.021.121.13.121.4a3.122,3.122,0,0,0,1.11,2.034c-.079.492-.445,1.789-1.229,2.116L2.185,13.892A2.617,2.617,0,0,0,.47,15.752l-.451,1.8a.375.375,0,0,0,.363.468H17.654a.375.375,0,0,0,.364-.466Z" transform="translate(247.992 18)" fill="#a3a3a3"/>
  </g>
</svg>
